<?xml version="1.0" encoding="utf-8"?>
<!-- Generator: Adobe Illustrator 16.0.0, SVG Export Plug-In . SVG Version: 6.00 Build 0)  -->
<!DOCTYPE svg PUBLIC "-//W3C//DTD SVG 1.1//EN" "http://www.w3.org/Graphics/SVG/1.1/DTD/svg11.dtd">
<svg version="1.1" id="Layer_1" xmlns="http://www.w3.org/2000/svg" xmlns:xlink="http://www.w3.org/1999/xlink" x="0px" y="0px"
	 width="215.889px" height="196.481px" viewBox="0 0 215.889 196.481" enable-background="new 0 0 215.889 196.481"
	 xml:space="preserve">
<path fill-rule="evenodd" clip-rule="evenodd" fill="#3C9BD6" d="M169.63,105.943c-35.461,0-70.923,0-106.386,0
	c-9.792,0-19.584-0.124-29.374,0.039c-7.938,0.132-16.29,0.092-16.545-10.435c-0.254-10.504,7.799-11.135,15.937-11.041
	c15.131,0.175,30.265,0.049,45.398,0.049c30.252,0,60.505,0,91.818,0c-1.909-5.553-5.733-8.006-9.576-10.853
	c-13.675-10.128-23.391-24.142-34.765-36.52c-3.777-4.111-3.107-8.899,0.719-13.148c3.525-3.915,6.948-4.225,11.759-1.645
	c3.22,1.727,5.971,3.674,8.469,6.17c18.257,18.242,36.372,36.631,54.815,54.685c8.195,8.023,8.908,15.257,0.436,23.569
	c-18.744,18.388-37.177,37.094-55.795,55.612c-1.86,1.851-3.958,3.568-6.213,4.893c-4.893,2.876-9.759,4.339-13.982-1.381
	c-3.803-5.148-3.448-10.02,1.088-14.229c8.71-8.078,14.46-18.839,24.942-25.478c7.023-4.449,12.613-11.167,18.843-16.869
	C170.689,108.223,170.16,107.083,169.63,105.943z"/>
</svg>
