<?xml version="1.0" encoding="utf-8"?>
<!-- Generator: Adobe Illustrator 16.0.0, SVG Export Plug-In . SVG Version: 6.00 Build 0)  -->
<!DOCTYPE svg PUBLIC "-//W3C//DTD SVG 1.1//EN" "http://www.w3.org/Graphics/SVG/1.1/DTD/svg11.dtd">
<svg version="1.1" id="Layer_1" xmlns="http://www.w3.org/2000/svg" xmlns:xlink="http://www.w3.org/1999/xlink" x="0px" y="0px"
	 width="215.89px" height="201.74px" viewBox="0 0 215.89 201.74" enable-background="new 0 0 215.89 201.74" xml:space="preserve">
<path fill-rule="evenodd" clip-rule="evenodd" fill="#797979" d="M121.396,134.395c-12.51,0-25.021,0.1-37.531-0.025
	c-13.84-0.14-22.154-7.462-24.029-21.164c-3.727-27.231-7.527-54.457-10.876-81.736c-0.876-7.13-4.201-9.892-10.972-9.71
	c-4.685,0.123-9.401,0.24-14.063-0.13c-4.232-0.337-6.958-2.942-7.022-7.33c-0.055-3.904,2.312-7.046,6.02-7.207
	c8.372-0.365,16.908-1.685,25.138,0.876c9.778,3.041,14.335,10.339,15.673,20.169c2.196,16.155,2.27,16.145,18.718,16.145
	c34.09,0,68.18-0.029,102.272,0.017c11.209,0.015,13.412,2.762,11.209,13.6c-3.92,19.274-7.705,38.577-11.85,57.804
	c-2.682,12.441-10.412,18.509-23.279,18.658C147.667,134.512,134.53,134.393,121.396,134.395z M124.165,59.32
	c-16.537,0-33.077,0.187-49.61-0.104c-5.471-0.097-6.754,1.299-5.83,6.862c2.346,14.131,4.25,28.357,5.675,42.611
	c0.777,7.751,3.994,10.88,11.884,10.779c24.022-0.304,48.051-0.326,72.073,0.017c7.518,0.106,10.734-3.29,12.02-10.059
	c2.789-14.689,5.461-29.413,8.783-43.984c1.281-5.608-0.688-6.241-5.387-6.189C157.239,59.432,140.7,59.322,124.165,59.32z"/>
<path fill-rule="evenodd" clip-rule="evenodd" fill="#7A7A7A" d="M76.744,186.942c-12.502-0.011-22.475-10.042-22.462-22.596
	c0.012-12.502,10.045-22.473,22.596-22.46c12.501,0.011,22.476,10.044,22.461,22.594C99.325,176.984,89.295,186.955,76.744,186.942z
	 M76.442,171.918c4.467-0.271,7.31-2.642,7.705-6.801c0.451-4.762-2.412-7.828-7.092-8.029c-4.778-0.207-7.584,2.834-7.588,7.548
	C69.465,169.004,72.448,171.162,76.442,171.918z"/>
<path fill-rule="evenodd" clip-rule="evenodd" fill="#7A7A7A" d="M189.429,164.695c-0.125,12.504-10.246,22.376-22.809,22.249
	c-12.504-0.126-22.377-10.248-22.25-22.812c0.127-12.503,10.248-22.372,22.813-22.248
	C179.683,142.009,189.556,152.132,189.429,164.695z M167.669,172.004c3.396-0.915,6.506-2.907,6.59-7.282
	c0.096-4.791-2.805-7.705-7.512-7.63c-4.76,0.074-7.471,3.226-7.176,7.941C159.839,169.326,162.847,171.454,167.669,172.004z"/>
</svg>
