<?xml version="1.0" encoding="utf-8"?>
<!-- Generator: Adobe Illustrator 16.0.0, SVG Export Plug-In . SVG Version: 6.00 Build 0)  -->
<!DOCTYPE svg PUBLIC "-//W3C//DTD SVG 1.1//EN" "http://www.w3.org/Graphics/SVG/1.1/DTD/svg11.dtd">
<svg version="1.1" id="Layer_1" xmlns="http://www.w3.org/2000/svg" xmlns:xlink="http://www.w3.org/1999/xlink" x="0px" y="0px"
	 width="215.889px" height="196.481px" viewBox="0 0 215.889 196.481" enable-background="new 0 0 215.889 196.481"
	 xml:space="preserve">
<path fill-rule="evenodd" clip-rule="evenodd" fill="#787878" d="M111.184,50.346c7.703-9.457,19.548-11.437,32.327-11.053
	c7.954,0.239,15.921,0.129,23.879,0.023c6.159-0.083,9.037,3.101,9.05,8.943c0.061,28.759,0.061,57.52-0.001,86.28
	c-0.014,6.377-4.17,8.224-9.744,8.221c-12.326-0.003-24.651-0.029-36.977,0.015c-9.735,0.035-12.185,2.241-15.056,11.71
	c-0.696,2.296-3.294,4.016-5.017,6.001c-1.903-2.064-4.764-3.824-5.536-6.249c-2.818-8.848-5.554-11.404-14.569-11.455
	c-12.582-0.07-25.166-0.133-37.747,0.023c-6.488,0.081-9.529-2.989-9.536-9.268c-0.028-28.503,0.012-57.006-0.039-85.509
	c-0.009-4.913,2.319-8.364,7.034-8.436c12.805-0.194,25.764-0.8,38.377,0.886C95.253,41.499,102.348,46.485,111.184,50.346z
	 M165.061,50.318c-11.238,0-21.49-0.115-31.74,0.031c-10.973,0.157-18.324,7.441-18.435,18.365
	c-0.147,14.376-0.041,28.756-0.042,43.134c0,7.382,0,14.764,0,20.554c17.417,0,33.811,0,50.218,0
	C165.061,104.03,165.061,77.683,165.061,50.318z M53.693,132.584c16.678,0,32.901,0,50.017,0c0-21.576,0.293-44.608-0.177-67.625
	c-0.143-6.94-7.302-13.941-14.211-14.304c-11.694-0.614-23.443-0.168-35.628-0.168C53.693,77.793,53.693,104.317,53.693,132.584z"/>
</svg>
