<?xml version="1.0" encoding="utf-8"?>
<!-- Generator: Adobe Illustrator 16.0.0, SVG Export Plug-In . SVG Version: 6.00 Build 0)  -->
<!DOCTYPE svg PUBLIC "-//W3C//DTD SVG 1.1//EN" "http://www.w3.org/Graphics/SVG/1.1/DTD/svg11.dtd">
<svg version="1.1" id="Layer_1" xmlns="http://www.w3.org/2000/svg" xmlns:xlink="http://www.w3.org/1999/xlink" x="0px" y="0px"
	 width="215.889px" height="196.481px" viewBox="0 0 215.889 196.481" enable-background="new 0 0 215.889 196.481"
	 xml:space="preserve">
<g>
	<path fill-rule="evenodd" clip-rule="evenodd" fill="#797979" d="M47.967,100.381c6.911,0.006,13.822-0.068,20.731,0.032
		c4.887,0.071,8.351,2.455,8.144,7.542c-0.181,4.48-3.39,6.488-7.918,6.934c-13.558,1.334-13.548,1.436-13.548,15.59
		c0,8.112-0.095,16.225,0.034,24.335c0.083,5.285-0.883,10.281-7.119,10.402c-6.203,0.121-7.497-4.671-7.438-10.069
		c0.121-11.116-0.263-22.244,0.16-33.345c0.212-5.557-1.429-7.349-7.033-7.086c-5.949,0.28-14.594,2.103-14.338-7.321
		c0.25-9.233,8.869-6.706,14.808-6.979C38.946,100.208,43.461,100.374,47.967,100.381z"/>
	<path fill-rule="evenodd" clip-rule="evenodd" fill="#7A7979" d="M105.397,71.451c-6.306-0.002-12.613-0.043-18.918,0.012
		c-5.176,0.045-9.262-1.823-9.158-7.456c0.093-4.991,3.79-6.81,8.658-7.101c12.795-0.766,12.787-0.892,12.79-13.602
		c0-4.805-0.082-9.612,0.043-14.414c0.117-4.47,2.344-7.772,6.923-7.861c5.041-0.098,7.45,3.251,7.488,8.192
		c0.054,6.906,0.356,13.833-0.07,20.713c-0.334,5.406,1.163,7.479,6.921,7.181c5.927-0.306,14.572-2.171,14.431,7.217
		c-0.14,9.283-8.752,6.825-14.694,7.078C115.014,71.616,110.203,71.452,105.397,71.451z"/>
	<path fill-rule="evenodd" clip-rule="evenodd" fill="#7A7979" d="M163.668,114.844c6.607,0.001,13.214,0.035,19.821-0.009
		c5.188-0.036,9.244,1.888,9.096,7.516c-0.13,4.995-3.865,6.761-8.72,7.039c-12.734,0.729-12.727,0.857-12.728,13.664
		c0,3.303-0.041,6.607,0.01,9.91c0.083,5.533,0.442,12-7.04,12.203c-7.508,0.202-7.573-6.09-7.48-11.753
		c0.094-5.704-0.334-11.44,0.121-17.109c0.442-5.51-1.317-7.396-6.974-7.121c-5.939,0.289-14.582,2.128-14.373-7.278
		c0.204-9.25,8.815-6.755,14.755-7.024C154.652,114.68,159.164,114.843,163.668,114.844z"/>
	<path fill-rule="evenodd" clip-rule="evenodd" fill="#797979" d="M156.652,60.611c-0.001-9.91,0.078-19.82-0.034-29.73
		c-0.058-5.028,1.208-9.546,6.816-9.803c6.191-0.284,7.749,4.286,7.728,9.763c-0.077,19.82-0.08,39.64,0.005,59.46
		c0.022,5.031-1.21,9.543-6.816,9.802c-6.191,0.284-7.785-4.284-7.728-9.761C156.727,80.432,156.653,70.521,156.652,60.611z"/>
	<path fill-rule="evenodd" clip-rule="evenodd" fill="#797979" d="M113.252,125.975c0,9.91-0.064,19.821,0.028,29.73
		c0.046,5.094-1.465,9.41-7.094,9.529c-5.587,0.119-7.448-3.962-7.434-9.167c0.055-20.121,0.058-40.242-0.007-60.362
		c-0.016-5.086,1.465-9.475,7.093-9.521c6.212-0.049,7.519,4.662,7.451,10.061C113.163,106.153,113.252,116.064,113.252,125.975z"/>
	<path fill-rule="evenodd" clip-rule="evenodd" fill="#7A7979" d="M55.373,53.993c0.002,7.203-0.086,14.407,0.031,21.607
		c0.087,5.382-1.234,10.133-7.461,10.044c-5.556-0.079-7.121-4.39-7.088-9.52c0.099-15.304,0.061-30.609,0.021-45.915
		c-0.014-5.166,1.823-9.318,7.444-9.157c5.565,0.16,7.169,4.402,7.086,9.532C55.278,38.386,55.372,46.191,55.373,53.993z"/>
</g>
</svg>
