<?xml version="1.0" encoding="utf-8"?>
<!-- Generator: Adobe Illustrator 16.0.0, SVG Export Plug-In . SVG Version: 6.00 Build 0)  -->
<!DOCTYPE svg PUBLIC "-//W3C//DTD SVG 1.1//EN" "http://www.w3.org/Graphics/SVG/1.1/DTD/svg11.dtd">
<svg version="1.1" id="Layer_1" xmlns="http://www.w3.org/2000/svg" xmlns:xlink="http://www.w3.org/1999/xlink" x="0px" y="0px"
	 width="215.889px" height="196.481px" viewBox="0 0 215.889 196.481" enable-background="new 0 0 215.889 196.481"
	 xml:space="preserve">
<path fill-rule="evenodd" clip-rule="evenodd" d="M104.548,19.229c22.446,0,44.896,0.205,67.338-0.118
	c7.192-0.104,10.854,2.372,12.381,9.546c1.917,8.996,4.629,17.838,7.322,26.646c3.193,10.448,3.486,19.926-5.608,28.103
	c-1.929,1.735-2.239,5.942-2.262,9.018c-0.175,23.766-0.065,47.534-0.111,71.3c-0.023,11.56-2.102,13.609-13.984,13.621
	c-43.243,0.041-86.486,0.04-129.729,0.002c-13.07-0.011-14.485-1.534-14.496-15.09c-0.021-23.768,0.089-47.536-0.113-71.301
	c-0.029-3.381-0.49-7.603-2.487-9.971c-6.862-8.137-8.328-16.75-5.172-26.712c2.683-8.469,5.219-17.021,7.102-25.691
	c1.554-7.153,5.323-9.574,12.481-9.471C59.651,19.434,82.101,19.229,104.548,19.229z M167.721,161.501c0-24.52,0-48.203,0-71.45
	c-6.886-3.198-13.327-6.189-19.87-9.229c-14.351,10.983-28.715,9.606-42.894-0.369c-13,9.563-26.131,10.879-39.897,2.392
	c-1.502-0.926-4.211-0.754-6.038-0.137c-5.865,1.981-11.579,4.411-18.132,6.973c0,11.273,0,23.136,0,35.001
	c0,12.118,0,24.235,0,36.644c12.516,0,23.863,0,36.046,0c0-17.074,0.297-33.534-0.116-49.976
	c-0.231-9.184,2.877-13.488,12.587-12.948c9.881,0.548,19.816,0.084,29.728,0.129c11.623,0.053,12.898,1.345,12.933,13.311
	c0.047,16.408,0.012,32.815,0.012,49.658C144.381,161.501,155.493,161.501,167.721,161.501z M105.504,34.629
	c-14.534,0-29.069,0-43.603,0c-23.163,0-23.418-0.061-28.85,22.773c-0.948,3.986,0.124,11.682,2.251,12.5
	c4.475,1.722,12.373,2.105,15.124-0.671c8.192-8.266,14.577-5.946,22.214-0.072c7.073,5.44,15.11,6.007,21.646-0.403
	c7.702-7.555,14.13-5.75,21.521,0.101c6.909,5.471,14.931,6.596,21.64,0.189c7.942-7.586,14.875-6.396,22.306,0.118
	c1.223,1.072,2.746,2.45,4.18,2.509c4.04,0.167,8.661,0.787,11.936-0.918c1.719-0.895,1.933-6.437,1.358-9.614
	c-1.17-6.456-3.723-12.657-4.979-19.104c-1.071-5.502-3.45-7.634-9.27-7.533C143.825,34.841,124.663,34.632,105.504,34.629z
	 M93.193,114.352c0,16.467,0,31.766,0,46.817c8.155,0,15.521,0,22.642,0c0-16.113,0-31.425,0-46.817
	C107.933,114.352,100.782,114.352,93.193,114.352z"/>
</svg>
